<svg version="1.1" preserveAspectRatio="none" xmlns="http://www.w3.org/2000/svg" width="500" height="500" viewBox="0 0 500 500"><rect width="100%" height="100%" fill="#0F222D" fill-opacity="1"/><svg viewBox="343.2693 136.0059 376.3989 328.4241" width="333" height="290.55670805626687" x="83.5px" y="104.7216px" xmlns="http://www.w3.org/2000/svg" xmlns:xlink="http://www.w3.org/1999/xlink" preserveAspectRatio="none"><defs></defs><style>.aDFQBjvS2colors-3 {fill:#21303A;fill-opacity:1;}.aDFQBjvS2colors-4 {fill:#51819E;fill-opacity:1;}.aDFQBjvS2colors-5 {fill:#064B75;fill-opacity:1;}.aDFQBjvS2colors-6 {fill:#ACA58C;fill-opacity:1;}.aDFQBjvS2colors-7 {fill:#3E5563;fill-opacity:1;}.companyName {fill:#EBE7D9;fill-opacity:1;}.icon1 {fill:#FFF5D0;fill-opacity:1;}.icon2 {fill:#BA3521;fill-opacity:1;}.icon3 {fill:#F55139;fill-opacity:1;}.icon3-str {stroke:#F55139;stroke-opacity:1;}.text {fill:#EBE7D9;fill-opacity:1;}</style><g opacity="1" transform="rotate(0 400.3514 439.23)">
<svg width="262.2347" height="25.2" x="400.3514" y="439.23" version="1.1" preserveAspectRatio="none" viewBox="4.16 -31 373.32 35.88">
  <g transform="matrix(1 0 0 1 0 0)" class="text"><path id="id-6izo4zJp18" d="M17.04-15Q19.52-14.04 20.96-12.26Q22.40-10.48 22.40-8.12L22.40-8.12Q22.40-5.36 21.06-3.54Q19.72-1.72 17.54-0.86Q15.36 0 12.76 0L12.76 0L4.16 0L4.16-28.92L11.64-28.92Q16.08-28.92 18.52-27.10Q20.96-25.28 20.96-21.64L20.96-21.64Q20.96-19.36 19.94-17.66Q18.92-15.96 17.04-15L17.04-15ZM8.04-25.20L8.04-16.28L12.44-16.28Q14.68-16.28 15.82-17.56Q16.96-18.84 16.96-20.84L16.96-20.84Q16.96-23.04 15.60-24.12Q14.24-25.20 11.80-25.20L11.80-25.20L8.04-25.20ZM12.60-3.60Q15.12-3.60 16.76-4.74Q18.40-5.88 18.40-8.08L18.40-8.08Q18.40-10.36 16.62-11.44Q14.84-12.52 12.32-12.52L12.32-12.52L8.04-12.52L8.04-3.60L12.60-3.60Z M38.16-2.80Q40.24-2.80 42.20-4.24L42.20-4.24L43.92-1.48Q42.60-0.60 41.06-0.10Q39.52 0.40 38.08 0.40L38.08 0.40Q35.32 0.40 33.26-0.74Q31.20-1.88 30.08-3.88Q28.96-5.88 28.96-8.40L28.96-8.40Q28.96-10.84 30.18-12.86Q31.40-14.88 33.52-16.06Q35.64-17.24 38.16-17.24L38.16-17.24Q41.40-17.24 43.58-15.34Q45.76-13.44 46.56-10.04L46.56-10.04L33.44-5.44Q34.16-4.20 35.38-3.50Q36.60-2.80 38.16-2.80L38.16-2.80ZM37.88-14.28Q35.60-14.28 34.12-12.68Q32.64-11.08 32.64-8.60L32.64-8.60Q32.64-8 32.68-7.68L32.68-7.68L42.32-11.24Q41.72-12.60 40.62-13.44Q39.52-14.28 37.88-14.28L37.88-14.28Z M79.24-17.24Q81.48-17.24 83.34-16.16Q85.20-15.08 86.28-13.12Q87.36-11.16 87.36-8.56L87.36-8.56Q87.36-5.84 86.20-3.80Q85.04-1.76 83.06-0.68Q81.08 0.40 78.76 0.40L78.76 0.40Q76.72 0.40 75.06-0.40Q73.40-1.20 72.36-2.56L72.36-2.56L72.36 0L68.64 0L68.64-31L72.36-31L72.36-14.36Q73.40-15.68 75.22-16.46Q77.04-17.24 79.24-17.24L79.24-17.24ZM77.96-2.80Q80.40-2.80 81.98-4.44Q83.56-6.08 83.56-8.56L83.56-8.56Q83.56-10.16 82.82-11.46Q82.08-12.76 80.80-13.52Q79.52-14.28 77.96-14.28L77.96-14.28Q75.92-14.28 74.38-13.18Q72.84-12.08 72.36-10.28L72.36-10.28L72.36-6.92Q72.84-5.12 74.36-3.96Q75.88-2.80 77.96-2.80L77.96-2.80Z M93.32-8.44Q93.32-10.88 94.50-12.90Q95.68-14.92 97.78-16.08Q99.88-17.24 102.52-17.24L102.52-17.24Q105.16-17.24 107.22-16.08Q109.28-14.92 110.42-12.92Q111.56-10.92 111.56-8.44L111.56-8.44Q111.56-5.96 110.42-3.94Q109.28-1.92 107.20-0.76Q105.12 0.40 102.44 0.40L102.44 0.40Q99.84 0.40 97.76-0.70Q95.68-1.80 94.50-3.80Q93.32-5.80 93.32-8.44L93.32-8.44ZM97.08-8.40Q97.08-6.84 97.78-5.52Q98.48-4.20 99.70-3.44Q100.92-2.68 102.40-2.68L102.40-2.68Q104.72-2.68 106.24-4.32Q107.76-5.96 107.76-8.40L107.76-8.40Q107.76-10.84 106.24-12.50Q104.72-14.16 102.40-14.16L102.40-14.16Q100.88-14.16 99.68-13.38Q98.48-12.60 97.78-11.28Q97.08-9.96 97.08-8.40L97.08-8.40Z M118.96-31L122.68-31L122.68 0L118.96 0L118.96-31Z M145.12-31L148.84-31L148.84 0L145.08 0L145.08-2.60Q143.88-1.20 142.14-0.40Q140.40 0.40 138.32 0.40L138.32 0.40Q136.00 0.40 134.12-0.72Q132.24-1.84 131.18-3.86Q130.12-5.88 130.12-8.52L130.12-8.52Q130.12-11.20 131.24-13.18Q132.36-15.16 134.32-16.20Q136.28-17.24 138.76-17.24L138.76-17.24Q140.64-17.24 142.38-16.46Q144.12-15.68 145.12-14.32L145.12-14.32L145.12-31ZM139.48-2.80Q141.64-2.80 143.14-3.96Q144.64-5.12 145.08-7.08L145.08-7.08L145.08-10.20Q144.60-12 143.04-13.14Q141.48-14.28 139.48-14.28L139.48-14.28Q137.96-14.28 136.68-13.54Q135.40-12.80 134.64-11.50Q133.88-10.20 133.88-8.56L133.88-8.56Q133.88-6.96 134.64-5.64Q135.40-4.32 136.68-3.56Q137.96-2.80 139.48-2.80L139.48-2.80Z M161.08-3.52L158.76 2.08L157.60 4.88L154.56 4.88L155.60 2.08Q157.40-2.76 157.68-3.52L157.68-3.52L161.08-3.52Z M197.04-15Q199.52-14.04 200.96-12.26Q202.40-10.48 202.40-8.12L202.40-8.12Q202.40-5.36 201.06-3.54Q199.72-1.72 197.54-0.86Q195.36 0 192.76 0L192.76 0L184.16 0L184.16-28.92L191.64-28.92Q196.08-28.92 198.52-27.10Q200.96-25.28 200.96-21.64L200.96-21.64Q200.96-19.36 199.94-17.66Q198.92-15.96 197.04-15L197.04-15ZM188.04-25.20L188.04-16.28L192.44-16.28Q194.68-16.28 195.82-17.56Q196.96-18.84 196.96-20.84L196.96-20.84Q196.96-23.04 195.60-24.12Q194.24-25.20 191.80-25.20L191.80-25.20L188.04-25.20ZM192.60-3.60Q195.12-3.60 196.76-4.74Q198.40-5.88 198.40-8.08L198.40-8.08Q198.40-10.36 196.62-11.44Q194.84-12.52 192.32-12.52L192.32-12.52L188.04-12.52L188.04-3.60L192.60-3.60Z M218.16-2.80Q220.24-2.80 222.20-4.24L222.20-4.24L223.92-1.48Q222.60-0.60 221.06-0.10Q219.52 0.40 218.08 0.40L218.08 0.40Q215.32 0.40 213.26-0.74Q211.20-1.88 210.08-3.88Q208.96-5.88 208.96-8.40L208.96-8.40Q208.96-10.84 210.18-12.86Q211.40-14.88 213.52-16.06Q215.64-17.24 218.16-17.24L218.16-17.24Q221.40-17.24 223.58-15.34Q225.76-13.44 226.56-10.04L226.56-10.04L213.44-5.44Q214.16-4.20 215.38-3.50Q216.60-2.80 218.16-2.80L218.16-2.80ZM217.88-14.28Q215.60-14.28 214.12-12.68Q212.64-11.08 212.64-8.60L212.64-8.60Q212.64-8 212.68-7.68L212.68-7.68L222.32-11.24Q221.72-12.60 220.62-13.44Q219.52-14.28 217.88-14.28L217.88-14.28Z M249.56 0L249.56-28.92L257.48-28.92Q262.88-28.92 266.42-26.78Q269.96-24.64 271.58-21.26Q273.20-17.88 273.20-14.12L273.20-14.12Q273.20-9.92 271.24-6.70Q269.28-3.48 266.00-1.74Q262.72 0 258.88 0L258.88 0L249.56 0ZM253.44-3.76L258.12-3.76Q261.32-3.76 263.84-5.02Q266.36-6.28 267.78-8.68Q269.20-11.08 269.20-14.40L269.20-14.40Q269.20-17.80 267.72-20.24Q266.24-22.68 263.78-23.94Q261.32-25.20 258.48-25.20L258.48-25.20L253.44-25.20L253.44-3.76Z M289.84-17.44Q288.56-17.44 287.70-17.94Q286.84-18.44 285.72-19.44L285.72-19.44Q285.00-20.12 284.52-20.44Q284.04-20.76 283.44-20.76L283.44-20.76Q282.56-20.76 282.06-19.84Q281.56-18.92 281.60-17.40L281.60-17.40L279.28-17.40Q279.08-20.08 280.30-21.88Q281.52-23.68 283.64-23.68L283.64-23.68Q284.68-23.68 285.50-23.16Q286.32-22.64 287.28-21.68L287.28-21.68Q288.12-20.88 288.64-20.52Q289.16-20.16 289.76-20.16L289.76-20.16Q290.60-20.16 291.00-21.10Q291.40-22.04 291.36-23.68L291.36-23.68L293.72-23.68Q293.76-23.32 293.76-22.68L293.76-22.68Q293.76-20.32 292.64-18.88Q291.52-17.44 289.84-17.44L289.84-17.44Z M302.04 0L302.04-13.24L299.20-13.24L299.20-16.60L302.04-16.60L302.04-23.56Q302.04-27.16 303.68-29.08Q305.32-31 308.48-31L308.48-31Q309.36-31 310.36-30.74Q311.36-30.48 312.12-30L312.12-30L310.52-27.28Q309.92-27.92 308.84-27.92L308.84-27.92Q307.32-27.92 306.54-26.88Q305.76-25.84 305.76-23.52L305.76-23.52L305.76-16.60L311.04-16.60L311.04-13.24L305.76-13.24L305.76 0L302.04 0Z M330.76-16.56L334.20-16.56L334.20 0L330.48 0L330.48-2.72Q329.60-1.56 327.92-0.58Q326.24 0.40 324.12 0.40L324.12 0.40Q321.76 0.40 319.86-0.62Q317.96-1.64 316.86-3.60Q315.76-5.56 315.76-8.28L315.76-8.28Q315.76-11 316.90-13.02Q318.04-15.04 319.98-16.14Q321.92-17.24 324.28-17.24L324.28-17.24Q326.40-17.24 327.96-16.32Q329.52-15.40 330.48-13.92L330.48-13.92L330.76-16.56ZM325.12-2.68Q327.16-2.68 328.62-3.82Q330.08-4.96 330.48-6.92L330.48-6.92L330.48-10.20Q330-11.96 328.48-13.06Q326.96-14.16 325-14.16L325-14.16Q323.52-14.16 322.26-13.44Q321-12.72 320.26-11.42Q319.52-10.12 319.52-8.48L319.52-8.48Q319.52-6.88 320.28-5.56Q321.04-4.24 322.32-3.46Q323.60-2.68 325.12-2.68L325.12-2.68Z M347.76 0.36Q345.92 0.36 344.26-0.28Q342.60-0.92 341.56-2.16L341.56-2.16L343.16-4.32Q344.16-3.36 345.26-2.84Q346.36-2.32 347.44-2.32L347.44-2.32Q348.76-2.32 349.60-2.84Q350.44-3.36 350.44-4.44L350.44-4.44Q350.44-5.28 349.92-5.80Q349.40-6.32 348.74-6.56Q348.08-6.80 346.52-7.28L346.52-7.28Q342.28-8.64 342.28-12.12L342.28-12.12Q342.28-14.20 343.82-15.68Q345.36-17.16 348.12-17.16L348.12-17.16Q349.88-17.16 351.24-16.72Q352.60-16.28 353.76-15.32L353.76-15.32L352.28-13.04Q351.64-13.72 350.66-14.12Q349.68-14.52 348.80-14.56L348.80-14.56Q347.68-14.56 346.88-14.02Q346.08-13.48 346.08-12.56L346.08-12.56Q346.08-11.80 346.60-11.30Q347.12-10.80 347.68-10.58Q348.24-10.36 349.88-9.84L349.88-9.84Q351.92-9.16 353.06-8.08Q354.20-7 354.20-5.16L354.20-5.16Q354.20-2.76 352.52-1.20Q350.84 0.36 347.76 0.36L347.76 0.36Z M372.08-17.20Q374.40-17.20 375.92-15.82Q377.44-14.44 377.48-12.24L377.48-12.24L377.48 0L373.72 0L373.72-10.96Q373.64-12.36 372.88-13.16Q372.12-13.96 370.60-14L370.60-14Q369.16-14 368.00-13.20Q366.84-12.40 366.18-10.96Q365.52-9.52 365.52-7.76L365.52-7.76L365.52 0L361.80 0L361.80-31L365.44-31L365.44-13.56Q366.36-15.20 368.10-16.20Q369.84-17.20 372.08-17.20L372.08-17.20Z"/></g>
</svg>
</g><g opacity="1" transform="rotate(0 343.2693 345.23)">
<svg width="376.3989" height="70" x="343.2693" y="345.23" version="1.1" preserveAspectRatio="none" viewBox="4.3359 -32.8906 179.1212 33.300799999999995">
  <g transform="matrix(1 0 0 1 0 0)" class="companyName"><path id="id-D6z1nYkh6" d="M4.34 0L4.34-30.53L15.53-30.53Q20.43-30.53 24.04-29.47Q27.66-28.42 30.03-26.46Q32.40-24.49 33.56-21.69Q34.73-18.89 34.73-15.39L34.73-15.39Q34.73-12.07 33.57-9.25Q32.42-6.43 30.06-4.37Q27.70-2.30 24.08-1.14Q20.47 0.02 15.57 0.02L15.57 0.02L4.34 0ZM10.53-5.35L17.05-5.35Q19.82-5.35 21.91-6.06Q24.00-6.78 25.40-8.09Q26.80-9.39 27.50-11.25Q28.20-13.11 28.20-15.39L28.20-15.39Q28.20-17.64 27.50-19.44Q26.80-21.25 25.40-22.51Q24.00-23.77 21.91-24.45Q19.82-25.14 17.05-25.14L17.05-25.14L10.53-25.14L10.53-5.35Z M42.71-13.24L39.94-16.78Q41.48-18.77 43.42-19.87Q45.35-20.98 47.62-21.13L47.62-21.13Q48.85-21.21 49.88-21.02Q50.92-20.82 51.82-20.48Q52.71-20.14 53.54-19.71Q54.36-19.28 55.15-18.91Q55.94-18.54 56.75-18.28Q57.56-18.03 58.46-18.03L58.46-18.03Q60.06-18.03 61.35-18.85Q62.64-19.67 63.63-20.96L63.63-20.96L66.41-17.42Q64.86-15.43 62.93-14.33Q61.00-13.22 58.73-13.07L58.73-13.07Q57.50-12.99 56.46-13.18Q55.43-13.38 54.53-13.72Q53.63-14.06 52.81-14.49Q51.99-14.92 51.20-15.29Q50.41-15.66 49.60-15.92Q48.79-16.17 47.89-16.17L47.89-16.17Q46.29-16.17 45-15.35Q43.71-14.53 42.71-13.24L42.71-13.24Z M75.90 0L75.90-18.71L71.95-18.71L71.95-23.05L75.90-23.05Q75.90-25.39 76.56-27.22Q77.23-29.04 78.49-30.30Q79.75-31.56 81.55-32.23Q83.36-32.89 85.63-32.89L85.63-32.89Q87.21-32.89 88.73-32.59Q90.25-32.29 91.43-31.72L91.43-31.72L89.38-26.86Q88.91-27.13 88.06-27.36Q87.21-27.60 86.19-27.60L86.19-27.60Q84.20-27.60 82.98-26.47Q81.76-25.35 81.68-23.05L81.68-23.05L88.96-23.05L88.96-18.71L81.68-18.71L81.68 0L75.90 0Z M92.32-7.27L92.32-7.27Q92.32-8.93 93.05-10.29Q93.77-11.66 95.21-12.65Q96.66-13.63 98.82-14.17Q100.98-14.71 103.85-14.71L103.85-14.71Q105.98-14.71 108.33-14.39Q110.68-14.08 113.18-13.44L113.18-13.44Q113.09-14.53 112.52-15.46Q111.95-16.39 110.95-17.06Q109.94-17.73 108.53-18.11Q107.11-18.48 105.31-18.48L105.31-18.48Q104.34-18.48 103.16-18.36Q101.99-18.24 100.74-18.01Q99.49-17.77 98.27-17.42Q97.05-17.07 96.00-16.58L96.00-16.58L94.24-21.33Q95.55-21.80 97.04-22.19Q98.54-22.58 100.10-22.86Q101.66-23.14 103.22-23.30Q104.79-23.46 106.25-23.46L106.25-23.46Q112.71-23.46 115.86-20.16Q119.00-16.86 119.00-10.04L119.00-10.04L119.00 0L113.22 0L113.22-2.17Q112.32-1.64 111.26-1.17Q110.20-0.70 108.95-0.35Q107.70 0 106.26 0.21Q104.82 0.41 103.22 0.41L103.22 0.41Q100.53 0.41 98.49-0.18Q96.45-0.76 95.08-1.80Q93.71-2.83 93.02-4.23Q92.32-5.63 92.32-7.27ZM98.42-7.46L98.42-7.46Q98.42-6.89 98.71-6.38Q99.00-5.86 99.65-5.46Q100.29-5.06 101.30-4.81Q102.30-4.57 103.73-4.57L103.73-4.57Q105.25-4.57 106.68-4.84Q108.11-5.12 109.34-5.57Q110.57-6.02 111.56-6.60Q112.56-7.19 113.22-7.81L113.22-7.81L113.22-8.83Q111.89-9.20 110.60-9.45Q109.30-9.71 108.12-9.85Q106.93-10 105.89-10.06Q104.84-10.12 104.06-10.12L104.06-10.12Q102.44-10.12 101.37-9.90Q100.29-9.69 99.63-9.33Q98.96-8.96 98.69-8.48Q98.42-7.99 98.42-7.46Z M125.06-2.70L127.56-7.07Q129.90-5.66 132.71-5Q135.53-4.34 138.48-4.34L138.48-4.34Q140.47-4.34 141.80-4.61Q143.13-4.88 143.93-5.31Q144.73-5.74 145.06-6.29Q145.39-6.84 145.39-7.40L145.39-7.40Q145.39-8.22 144.68-8.81Q143.96-9.39 142.32-9.39L142.32-9.39Q141.56-9.39 140.68-9.30Q139.80-9.20 138.84-9.09Q137.87-8.98 136.83-8.89Q135.78-8.79 134.71-8.79L134.71-8.79Q132.36-8.79 130.71-9.30Q129.06-9.80 128.03-10.68Q126.99-11.56 126.52-12.76Q126.05-13.96 126.05-15.35L126.05-15.35Q126.05-17.11 126.88-18.59Q127.70-20.08 129.22-21.16Q130.74-22.25 132.90-22.85Q135.06-23.46 137.71-23.46L137.71-23.46Q139.10-23.46 140.62-23.29Q142.13-23.13 143.59-22.85Q145.06-22.58 146.41-22.22Q147.75-21.86 148.79-21.45L148.79-21.45L146.97-16.95Q144.77-17.77 142.57-18.25Q140.37-18.73 138.05-18.73L138.05-18.73Q136.43-18.73 135.30-18.49Q134.18-18.24 133.48-17.84Q132.77-17.44 132.45-16.92Q132.13-16.41 132.13-15.84L132.13-15.84Q132.13-15.43 132.29-15.10Q132.46-14.77 132.84-14.52Q133.22-14.28 133.84-14.15Q134.45-14.02 135.35-14.02L135.35-14.02Q136.17-14.02 137.09-14.12Q138.01-14.22 139.00-14.33Q140-14.43 141.06-14.53Q142.13-14.63 143.24-14.63L143.24-14.63Q145.31-14.63 146.87-14.14Q148.42-13.65 149.43-12.77Q150.45-11.89 150.96-10.70Q151.46-9.51 151.46-8.11L151.46-8.11Q151.46-6.29 150.63-4.73Q149.79-3.16 148.13-2.02Q146.46-0.88 143.99-0.23Q141.52 0.41 138.28 0.41L138.28 0.41Q136.29 0.41 134.43 0.17Q132.58-0.08 130.90-0.50Q129.22-0.92 127.74-1.48Q126.27-2.05 125.06-2.70L125.06-2.70Z M156.66 0L156.66-32.38L162.44-32.38L162.44-21.29Q164.26-22.29 166.49-22.87Q168.73-23.46 171.19-23.46L171.19-23.46Q174.04-23.46 176.32-22.62Q178.59-21.78 180.18-20.21Q181.76-18.63 182.61-16.39Q183.46-14.14 183.46-11.33L183.46-11.33L183.46 0L177.70 0L177.70-11.09Q177.70-12.73 177.17-14.09Q176.64-15.45 175.63-16.43Q174.61-17.40 173.15-17.94Q171.70-18.48 169.86-18.48L169.86-18.48Q167.66-18.48 165.76-17.77Q163.87-17.07 162.44-16.00L162.44-16.00L162.44 0L156.66 0Z"/></g>
</svg>
</g><g opacity="1" transform="rotate(0 456.189 136.0059)">
<svg width="150.5595" height="179.2241" x="456.189" y="136.0059" version="1.1" preserveAspectRatio="none" viewBox="32.79537582397461 19.999685287475586 134.41038513183594 160.00027465820312">
  <g transform="matrix(1 0 0 1 0 0)"><g><path d="M105.473 24.193a1.414 1.414 0 0 0-.044-.504c.009-.065.018-.129.026-.198.013-.125 0-.251-.025-.376.435-.702-.003-1.607-.57-2.069-1.078-.877-2.935-.828-4.241-.676-1.184.138-2.3.552-3.448.849-1.069.276-2.175.323-3.256.551-4.555.963-8.507 2.512-12.252 5.316-3.676 2.754-6.094 6.669-7.727 10.911-.915 2.377-1.696 4.795-2.427 7.233-.235.351-.478.699-.746 1.07-.764 1.058-1.119 2.419-1.357 3.684-.158.843-.212 1.693-.267 2.544-.153.498-.236 1.026-.307 1.522-.177 1.234-.442 2.487-.565 3.729-.221 2.23-.149 4.324.423 6.485.287 1.085.643 2.132 1.285 3.065.561.815 1.292 1.306 2.039 1.88.112.097.227.187.345.271.293.207.581.3.851.308.087.238.172.483.253.732.028 1.402.202 2.558.564 3.976.154.604.211 1.226.36 1.83.043.172.1.336.165.495.028.271.077.52.15.756a1.25 1.25 0 0 0-.682.604l-.024.05c-1.867-.464-4.157-.097-6.121.607a38.138 38.138 0 0 0-.676-.001c-2.469.024-4.67 1.278-6.708 2.553-.469.293-.933.567-1.387.838a8.346 8.346 0 0 0-2.012.223c-3.351.816-5.585 4.457-5.521 7.835a10.087 10.087 0 0 0-1.945 1.867l-.098.04c-1.536.665-2.675 1.654-3.793 2.775-.392.24-.763.529-1.099.853-3.382.523-6.293 3.833-5.672 7.593.094.569.24 1.121.52 1.637-.024-.045.09.129.234.341l-.055.103c-.316.613-.58 1.249-.761 1.893-1.6.84-2.734 2.428-3.384 4.474a5.239 5.239 0 0 0 .913 4.894v.009c.012.344.073.648.163.933-.27.919-.546 1.787-.866 2.697-.86 2.448.218 4.954 2.35 5.978.257.329.548.641.865.937-.011.031-.024.06-.033.091-.264.889-.262 1.854.073 2.717a3.76 3.76 0 0 0 2.386 2.228c-.678 4.677 3.564 10.233 7.547 11.934 2.753 1.176 5.953 1.036 8.809.357 1.06-.252 2.092-.522 3.081-.876 2.974.361 6.095-.151 8.753-1.363.968-.441 1.88-.983 2.74-1.603 1.196-.09 2.377-.376 3.424-.962.759-.425 1.319-1.152 2.126-1.445.907-.329 1.947-.333 2.878-.607 2.903-.856 3.929-3.014 5.105-5.555.625-1.351 1.976-3.84 1.61-5.635.211-1.36.288-2.812-.688-3.876a49.56 49.56 0 0 0 .984-2.228c.603-1.471 1.195-3.187 1.208-4.846.178-.784.171-1.571-.17-2.334.695-1.609.811-3.603.97-5.372.091-1.01.25-2.003.359-2.995.562-.903.749-2.012.226-2.955a3.118 3.118 0 0 0-.205-.319 8.243 8.243 0 0 0-.103-.592 24.78 24.78 0 0 0-.149-.652c.13-1.201.168-2.408.201-3.625.043-1.6.347-3.238-.487-4.701-.517-.908-1.351-1.622-1.964-2.466a51.368 51.368 0 0 0-2.015-2.611c-1.16-1.4-2.62-2.52-3.759-3.928-1.098-1.357-2.186-3.562-3.875-4.4.271-.356.4-.805.257-1.255-.16-.501-.329-.968-.488-1.435-.011-.126-.024-.25-.027-.337a4.338 4.338 0 0 0-.241-1.345c-.355-1.04-.181-2.062-.52-3.11l-.002-.005c.068-.317.023-.674-.189-1.044a73.13 73.13 0 0 1-.163-.422 1.446 1.446 0 0 0-.333-.671c-.357-1.052-.77-2.071-1.377-3.021-.488-.168-.951-.335-1.338-.769-.373-.418-.586-.949-.726-1.485a6.87 6.87 0 0 1-.195-1.259 12.113 12.113 0 0 1-.643-2.385c-.011-.954.066-1.913.137-2.863.089-1.195.532-2.232.714-3.405.094-.608.267-1.151.456-1.691l.241-.234c-.024-1.148.323-2.435 1.478-2.801.438-.139.806-.086 1.117.086.093-.217.161-.454.2-.716.053-.041.105-.085.153-.137a3.05 3.05 0 0 0 .565-.848c.525-.099 1.003-.423 1.194-1.012l.056-.165c.539-.648 1.057-1.443 1.328-2.161.02-.053.098-.316.124-.445.087-.105.246-.333.266-.365.1-.165.16-.329.204-.494.033-.044.065-.086.099-.134.441-.616.651-1.304 1.203-1.857.571-.572 1.296-1.002 1.92-1.518 1.355-1.119 2.913-1.764 4.472-2.553.725-.367 1.477-.789 2.245-1.178.626-.193 1.22-.498 1.834-.727.387-.144.784-.27 1.177-.405 1.496-.324 3.029-.644 4.345-1.463 1.37-.853 2.777-1.57 4.171-2.382 1.214-.707 2.597-1.425 3.408-2.619.396-.584.593-1.232.639-1.937.047-.653-.316-1.331-.263-1.931z" data-color="1" class="icon1"></path><path d="M166.626 134.098c-.482-2.226-.07-4.408-.296-6.654-.183-1.812-.642-3.631-.912-5.44a29.776 29.776 0 0 0-1.331-5.443 12.6 12.6 0 0 0-.03-1.064c-.09-1.226-.486-2.402-.569-3.615-.19-2.883-.765-5.415-1.88-8.084-.773-1.848-1.805-4.028-3.299-5.534a32.314 32.314 0 0 0-1.025-.182c-.068-.011-.451-.061-.653-.089-.271-.025-.773-.076-.842-.082-.347-.03-.694-.057-1.042-.08a50.95 50.95 0 0 0-4.421-.125 33.15 33.15 0 0 0-2.316.137c-.402.037-.803.083-1.203.128l-.019.002-.093.013c-1.614.23-3.227.492-4.841.736-2.944 1.051-5.828 2.221-8.838 3.368-5.029 1.916-10.474 2.936-14.923-.797-4.006-3.362-5.681-9.33-6.668-14.154a72.44 72.44 0 0 1-.882-5.413c-.482.246-1.004.441-1.465.595-1.008.338-1.94.653-2.904 1.096-.126.06-.183.089-.203.105-.349.064-.802.045-1.061.115a3.49 3.49 0 0 0-.745.312c-.087.054-.15.096-.193.131-.027-.006-.063-.01-.116-.006-1.151.032-2.329-.029-3.483-.041-1.165-.01-2.226-.309-3.377-.436-.489-.054-.951-.026-1.441-.041-.529-.019-.313.067-.722-.325a5.694 5.694 0 0 0-1.158-.825c-.283-.156-1.314-.491-1.347-.491-.393-.28-1.344-1.344-2.093-1.803-.941-.577-1.876-1.21-2.828-1.765-.07-.041-.14-.076-.213-.115-.359-.714-1.01-1.224-1.748-1.477.211.822.24 1.698.077 2.532-1.358 6.95-1.608 14.215-4.243 20.887-1.391 3.523-3.283 6.983-6.326 9.466-2.254 1.84-4.789 3.091-7.502 3.852a22.99 22.99 0 0 1-2.79 1.912c-2.828 1.645-5.963 2.656-9.138 3.518a3.777 3.777 0 0 0-.988.671c-.08.073-.153.153-.22.236a71.524 71.524 0 0 0-3.014 1.609c-.1.054-.203.118-.306.178a13.13 13.13 0 0 0-.855.296c-1.108.427-1.883.952-2.728 1.628-.21.089-.419.175-.625.264-.053.016-.106.035-.16.048-1.657.43-2.938 1.169-4.109 2.217a11.174 11.174 0 0 0-1.903 1.761c-.998 1.172-2.212 2.249-2.745 3.736-.492 1.379-.769 2.86-1.234 4.262-1.045 3.141-1.817 6.335-2.608 9.542-.446 1.793-.955 3.548-1.134 5.392-.173 1.78-.073 3.567-.05 5.348.003.261.033.5.083.726-.04.182-.07.37-.083.573-.03.433-.023.876-.003 1.319v1.672c0 .812.263 1.452.675 1.924.805 2.561 2.246 4.997 3.959 6.775 2.688 2.79 6.737 4.567 10.257 5.966 1.923.764 3.929 1.484 5.979 1.803.502.08.998.134 1.494.166 1.96.14 3.883-.045 5.852-.36 3.899-.621 8.061-2.144 12.037-1.682 4.265.497 8.6 1.774 12.719 2.978 2.073.608 4.139 1.153 6.291 1.376 2.279.236 4.531-.083 6.8-.29 4.382-.398 8.56.882 12.935.936 2.209.029 4.438 0 6.604-.462 2.196-.468 4.308-1.36 6.458-2.007 2.006-.602 3.952-1.35 5.935-2.022 2.149-.726 4.292-1.175 6.338-2.201 1.916-.962 3.693-2.252 5.45-3.475 1.89-1.315 3.833-2.567 5.639-4 2.136-1.691 4.022-3.685 6.032-5.526.888-.815 1.8-1.599 2.765-2.316.722-.532 1.507-.959 2.209-1.523.779-.627 1.231-1.427 1.893-2.15.369-.398.702-.557 1.194-.828 1.118-.624 2.02-1.408 2.738-2.478 1.993-2.969 1.51-6.867 1.97-10.253.319-2.362.063-4.337-.439-6.653z" data-color="2" class="icon2"></path><path d="M109.664 88.375c-.694.278-1.098.81-1.436 1.411-.668.801-1.299 1.637-2.088 2.334-1.611 1.424-3.187 2.86-5.219 3.65-1.933.751-3.784.514-5.755.108-.771-.159-1.655-.462-2.426-.697-1.147-.349-1.704-1.542-2.59-2.279a.647.647 0 0 0-.397-.155 6.09 6.09 0 0 0-.266-.317c-1.111-1.191-2.101-2.597-3.313-3.677-1.021-.909-1.948-1.76-2.905-2.747-.259-.268-.548-.548-.843-.841a.68.68 0 0 0-.17-.422c-.797-.949-1.435-2.062-2.285-2.956a.577.577 0 0 0-.218-.143l-.031-.029c-.119-.456-.423-.943-.591-1.353-.262-.641-.433-1.325-.633-2a.502.502 0 0 0-.017-.352 44.01 44.01 0 0 1-1.391-4.058 24.06 24.06 0 0 1-.225-2.16c.02-.808.109-1.611.094-2.408-.013-.686-1.152-.906-1.251-.169-.008.056-.013.113-.02.17h-.002v.022a16.466 16.466 0 0 0-.073 3.359c.011.272.035.543.071.814 0 .06.005.122.024.189l.013.042c.012.07.019.14.033.21l.006.027c.119.892.278 1.805.679 2.61.51 1.022.865 2.058 1.167 3.186.266.994.905 1.936 1.092 2.931a.46.46 0 0 0 .059.151c.068.483.155.97.281 1.421.058.208.23.394.445.445.469.11.874.284 1.259.518.287.32.577.628.849.924.706.77 1.437 1.709 2.22 2.39.708.616 1.501 1.091 2.135 1.814 1.25 1.424 2.465 2.858 3.755 4.248.419.451.881 1.097 1.424 1.545a.679.679 0 0 0 .455.704c.297.098.58.35.885.504.055.274.214.54.372.753.224.301.525.381.872.229.699-.308.97-.591 1.854-.503.932.092 1.818.324 2.762.324.773-.001 1.571.139 2.336.07.844-.076 1.551-.487 2.297-.853 1.878-.921 2.958-2.207 4.292-3.774.532-.625 1.069-1.277 1.502-1.979.151-.245.283-.604.437-.953.342-.424.692-.84 1.093-1.21.446-.414-.016-1.309-.618-1.068z" data-color="3" class="icon3"></path><path d="M124.639 51.488a2.926 2.926 0 0 0-.275-.021c-.105-2.787-.497-5.635-1.298-8.173a78.77 78.77 0 0 0-1.669-4.797c-.591-1.52-1.391-3.299-2.313-4.618-1.748-2.501-5.14-4.605-7.957-5.54a6.85 6.85 0 0 0-.425-.497c-1.319-1.385-2.994-2.229-4.683-2.964-2.115-.921-4.209-.787-6.431-.402-1.858.322-3.567.835-5.333 1.54-1.865.745-3.857 1.197-5.678 2.048-3.467 1.62-6.469 5.208-8.102 8.821a73.316 73.316 0 0 0-.673 1.535c-.492.741-.799 1.633-1.012 2.541-.959 2.581-1.724 5.253-2.138 7.976a2.608 2.608 0 0 0-.283.041c-1.795.379-2.43 2.307-2.998 3.904-.274.772-.289 1.559-.472 2.353-.181.791-.533 1.486-.627 2.302-.186 1.611-.204 3.62.432 5.114.144.338.31.655.525.948.025.034.046.061.065.084-.01.049-.01.137.008.288.065.542.886 1.773 1.217 2.234.193.269.426.501.671.719.023 1.758.183 3.55.682 5.155.046.835.134 1.665.28 2.453.318 1.707 1.253 3.3 1.924 4.866.607 1.414 1.515 2.757 2.463 3.928 1.117 1.38 2.284 2.892 3.57 4.079.288.266.565.543.838.826.498.681 1.062 1.319 1.684 1.819.366.396.736.787 1.123 1.16l.125.123c.183.197.369.38.558.548 1.132 1.118 2.244 2.262 3.384 3.368 1.925 1.866 4.092 2.567 6.725 2.205 1.509-.208 2.928-.333 4.341-.999 1.452-.684 2.669-1.944 3.811-3.1.656-.663 1.246-1.393 1.904-2.055.605-.608 1.277-.993 1.942-1.501 1.325-1.013 2.525-2.43 3.58-3.762 1.029-1.189 1.919-2.512 2.984-3.642 1.053-1.116 2.122-2.032 2.868-3.448.324-.617.431-1.116.51-1.814a9.07 9.07 0 0 1 .055-.403c.043-.084.089-.167.13-.253.947-1.951 1.588-4.139 2.12-6.341.847-.773 1.662-1.556 2.385-2.562.538-.749.774-1.733 1.019-2.631.059-.216.16-.506.148-.732a1.23 1.23 0 0 1-.003-.081c.022-.048.044-.096.061-.147.145-.327.196-.68.246-1.038.339-2.421.134-4.921.412-7.356.233-2.048-.297-3.823-2.42-4.101z" data-color="4" class="aDFQBjvS2colors-3"></path><path d="M120.129 44.325c.528.106.216.072-.1-.284-.678-.764-.978-1.231-1.37-2.141-.521-1.209-1.525-1.978-2.002-3.213-.044-.114-.09-.228-.138-.34.17-.218.2-.529-.068-.791a81.219 81.219 0 0 0-.892-.864c-.14-.178-.29-.35-.453-.513a3.644 3.644 0 0 0-.481-.357 30.902 30.902 0 0 0-1.792-1.517.768.768 0 0 0-.432-.151 3.84 3.84 0 0 0-.874-1.133 7.6 7.6 0 0 0-.499-.51c-.385-.36-.779-.767-1.259-1.001a1.522 1.522 0 0 0-.34-.111c-.552-.331-1.123-.567-1.65-.563a.623.623 0 0 0-.491.252c-.421-.118-.845-.223-1.256-.42-.921-.442-1.866-.36-2.728-.935-.395-.264-.804-.716-1.339-.665-.72.069-1.495.939-2.077 1.337-.962.659-1.867.739-2.83.776-.044-.011-.087-.023-.135-.025a4.334 4.334 0 0 0-.961.076 8.777 8.777 0 0 0-.602.066c-1.094.162-1.999.516-2.982.995-.266.13-.355.339-.328.544-1.013.366-1.932.668-2.851 1.328-1.049.754-2.368 1.351-3.359 2.152-.884.715-1.131 2.225-1.631 3.213-.481.95-.95 1.879-1.409 2.838-.223.465-.656 1.472-1.047 1.824-.373.336-1.016.528-1.46.751-.697.349-1.17.91-1.528 1.607-.503.977-.238 2.055-1.416 2.417a8.853 8.853 0 0 0-.59.037.677.677 0 0 0-.157-.036 4.729 4.729 0 0 0-1.431.059l.108-.157c.172-.253.127-.499-.02-.675-.015.057-.025.116-.042.172-.351 1.141-.951 2.06-1.47 3.107-.11.222-.457 1.148-.298.671a16.89 16.89 0 0 0-.323 1.016c-.031.114-.056.229-.082.344a.587.587 0 0 0 .068-.15c.089-.323.316-.906.565-1.429.183-.29.351-.548.522-.769.098-.056.205-.107.327-.148.656-.218 1.349-.449 2.015-.658.227-.071.472-.106.724-.127a.688.688 0 0 0 .155.025c.396.012.715-.061 1.1-.111.057-.007.114-.013.17-.023.336-.057.473-.368.448-.667.151-.181.271-.401.345-.689.277-1.076.43-2.089 1.469-2.706.815-.484 1.718-.657 2.207-1.516.599-1.051.971-2.21 1.567-3.26.236-.416.474-.836.682-1.267.327-.677.588-1.986 1.106-2.55.42-.457 1.324-.795 1.853-1.119.576-.352 1.115-.741 1.666-1.127 1.279-.895 3.07-1.644 4.631-1.929.734-.134 1.66-.27 2.323-.718a5.743 5.743 0 0 0 2.806-.615c.67-.333 1.58-.877 2.12-1.382.056-.04.104-.09.157-.135l.066.019c.25.172.437.419.686.584.677.449 1.467.383 2.205.622.465.151.812.456 1.273.623.41.149.755.003 1.232.195.752.302 1.282 1.019 1.936 1.46.264.178.59.262.848.437.656.443.531.735.922 1.27a.67.67 0 0 0 .202.181c-.003.042-.002.082-.007.126-.034.269.222.551.468.614a9.481 9.481 0 0 1 2.895 1.325c.241.333.454.7.632 1.131.169.409.306.829.522 1.218.322.579.848.933 1.213 1.473.464.686.57 1.552.948 2.278.152.293 1.124.991 1.145 1.096a.62.62 0 0 0 .445.445l.088.018c.802.164 1.144-1.064.34-1.225z" data-color="3" class="icon3"></path><path d="M125.791 44.892c-.077-1.685-.135-3.235-.772-4.81-.636-1.571-1.597-2.989-2.388-4.474-.8-1.502-2.018-2.656-2.898-4.102-1.718-2.821-4.17-4.83-6.751-6.699-1.52-1.101-3.193-1.813-4.845-2.643-1.433-.719-2.889-1.578-4.404-2.078-.585-.193-1.044-.045-1.353.272a1.946 1.946 0 0 0-.94-.009c-1.798.386-3.547 1.136-5.26 1.748-1.975.705-3.97 1.293-5.807 2.279-3.118 1.675-6.095 3.498-8.259 6.187-1.109 1.378-2.596 2.44-3.615 3.88-1.008 1.424-2.209 2.768-3.04 4.29-.833 1.525-.987 3.067-1.171 4.744-.179 1.632.312 3.129.165 4.738-.118 1.292 1.235 1.852 2.294 1.576.83.048 1.713-.421 1.909-1.415.133-.675.447-1.442.667-1.902.442-.926 1.02-1.223 1.911-1.782 1.446-.907 1.889-1.482 2.628-2.908.255-.491.566-1.083.83-1.708.453-.718.833-1.635 1.131-2.182.055-.063.108-.126.174-.189.894-.85 2.024-1.53 3.019-2.276a204.53 204.53 0 0 0 3.609-2.782c.528-.225 1.047-.441 1.537-.648 2.083-.88 4.486-.083 6.593-.961.995-.414 1.492-1.118 1.741-1.939.206.691.595 1.291 1.307 1.701 1.756 1.01 3.844.367 5.579 1.376.408.238.841.485 1.28.744a189.896 189.896 0 0 0 2.946 3.006c.813.808 1.745 1.558 2.467 2.463.053.067.095.133.139.199.228.564.509 1.504.86 2.249.196.64.433 1.251.627 1.757.562 1.471.913 2.072 2.103 3.07.734.615 1.213.948 1.545 1.9.165.473.396 1.258.478 1.94.12 1.005.851 1.528 1.561 1.533.891.343 2.072-.13 2.033-1.428-.046-1.614.444-3.077.37-4.717z" data-color="1" class="icon1"></path><path d="M154.296 160.299c-2.01 1.841-3.896 3.835-6.032 5.526-1.807 1.433-3.75 2.685-5.639 4-1.757 1.223-3.533 2.513-5.45 3.475-2.046 1.026-4.189 1.475-6.338 2.201-1.983.672-3.929 1.421-5.935 2.022-2.149.647-4.262 1.538-6.458 2.007-2.166.462-4.395.491-6.604.462-4.375-.054-8.554-1.335-12.935-.936-2.269.207-4.521.526-6.8.29-2.153-.223-4.219-.768-6.291-1.376-4.119-1.204-8.454-2.481-12.719-2.978-3.976-.462-8.138 1.061-12.037 1.682-1.97.315-3.893.5-5.852.36a13.13 13.13 0 0 1 1.025-3.672c.03-.408.06-.819.087-1.226-.423-2.016-.369-4.134-.11-6.157.12-.946.286-1.879.446-2.812-.003-.277 0-.554-.007-.831-.04-2.172-.03-4.341.276-6.498.303-2.131.732-4.112.679-6.275-.027-1.137-.09-2.287.047-3.418.12-.987.426-1.93.486-2.927.133-2.207.12-4.43.263-6.644.097-1.561.17-3.121.223-4.685-.003-.803-.003-1.605-.003-2.408-.136-1.714-.087-3.475 0-5.227.003-1.354.007-2.707.007-4.061 0-.86.023-1.72.037-2.58l.01-.006.389-.223.01-.003.622-.354.017-.01 1.903-1.086c-.05 1.682-.103 3.36-.15 5.039-.03.971-.077 1.952-.12 2.937-.01 1.503-.027 3.01-.053 4.516.05 1.264.183 2.523.456 3.758.366 1.663.156 3.373.509 5.004.27 1.255 1.045 2.137 1.018 3.475-.01.541-.166 1.143-.053 1.679.146.697.689 1.252.888 1.952.13.44.133.834.363 1.249.14.255.353.452.486.707.273.519.083 1.245.313 1.678.12.223.569.452.729.691.13.197.25.599.313.78.236.678.469 1.242.852 1.882.759 1.274 1.53 2.545 2.362 3.778 1.85 2.739 3.849 4.883 6.667 6.714 1.79 1.163 3.42 2.414 5.233 3.437 1.135-.006 2.206.532 3.038 1.363 1.431.446 2.928.628 4.348 1.115.725.252 1.421.621 2.189.755.772.131 1.58.025 2.359.006 3.217-.089 6.551.35 9.708-.36 1.597-.36 3.161-.908 4.794-1.112 1.657-.204 3.184-.102 4.824-.541 1.683-.446 3.254-.943 4.741-1.838 1.234-.742 2.412-1.548 3.686-2.226 1.304-.694 2.379-1.679 3.686-2.367 1.055-.554 2.229-1.226 3.174-1.93.998-.749 1.747-2.07 2.675-2.949 1.065-1.013 1.923-2.15 2.858-3.271.962-1.156 2.099-2.185 2.938-3.43.805-1.191 1.091-2.494 1.46-3.844.625-2.271 1.527-4.418 2.193-6.647-.01-1.003.389-1.905.622-2.656.02-.064.037-.127.053-.191.053-.315.106-.634.153-.949.027-.207.053-.414.09-.618l.08-.57c-.003-.385 0-.771.017-1.153.05-1.341.482-2.637.506-3.969.013-.771.263-1.386.649-1.851.772-3.179 1.065-6.306 1.471-9.555.419-3.341.878-6.657 1.178-10.011.299-3.322.379-6.628.585-9.95.02-.315.053-.624.097-.933l3.53.032c-.013.433-.013.866.007 1.306.04.866-.083 1.344-.393 2.128-.529 1.344-.489 3.054-.556 4.478-.246 5.22-.07 10.479-.07 15.706v7.937c0 .245 0 .491-.003.736.369.892.526 1.796.236 2.854l-.24.895c.05.921.156 1.838.386 2.733.639 2.497 1.307 4.934 1.757 7.472.419 2.389.778 4.787 1.311 7.157.85 3.801 2.074 7.518 2.733 11.34z" data-color="5" class="aDFQBjvS2colors-4"></path><path d="M119.199 102.114c-.223.223-.446.449-.659.675-.777.815-1.647 1.478-2.335 2.395-.688.914-1.08 1.64-1.997 2.405-2.873 2.395-6.02 4.271-9.581 5.424-1.615.519-3.242.382-4.873.108-1.678-.28-3.341-.041-4.991-.456a115.682 115.682 0 0 0-4.854-1.102c-2.035-.417-3.902-1.417-5.717-2.402-1.956-1.057-3.79-2.344-5.733-3.44l.022-.038.325-.503c.283.156.564.312.844.471 2.309 1.306 4.478 2.787 6.857 3.972 2.411 1.201 4.981 1.739 7.609 2.109.634.086 1.22.303 1.841.414 1.159.21 2.245.134 3.418.277 2.408.296 3.959.373 6.217-.589 1.128-.478 2.306-.841 3.427-1.379 1.188-.567 2.112-1.319 3.134-2.121 1.268-.991 2.414-1.745 3.233-3.137.462-.787 1.217-1.545 1.876-2.153.455-.417.933-.85 1.411-1.293l.526.363z" data-color="3" class="icon3"></path><path d="M122.725 103.569c-.051.64-.095 1.28-.115 1.927-.08 2.36-.911 4.638-1.312 6.944-.443 2.532-.758 4.79-1.717 7.205-.494 1.236-1.083 2.424-1.478 3.698-.385 1.233-.628 2.503-1.003 3.736-.761 2.5-1.997 4.966-3.287 7.233-1.226 2.16-2.204 4.303-3.195 6.58-.965 2.226-2.051 4.408-3.051 6.622-.79 1.749-.822 3.956-1.659 5.663-.048.01-.096.016-.143.022-.583-.529-.994-1.503-1.43-2.089-.806-1.083-1.656-2.223-2.389-3.357-1.503-2.331-3.185-4.344-4.946-6.485-.866-1.054-1.991-1.857-2.844-2.924-.882-1.105-1.395-2.452-2.265-3.586-1.612-2.096-2.997-4.274-4.688-6.306-1-1.204-1.593-2.564-2.456-3.848-.78-1.166-1.653-2.284-2.465-3.43-1.593-2.249-3.319-4.332-5.189-6.357-.994-1.08-1.946-2.223-3.016-3.23-.264-.248-.532-.487-.79-.723l-.573.36c.424.379.86.758 1.271 1.166.927.917 1.774 1.917 2.66 2.876 2.236 2.427 4.208 4.981 6.103 7.679 1.475 2.105 2.675 4.415 4.354 6.364.984 1.14 1.761 2.316 2.586 3.564.812 1.229 1.87 2.296 2.64 3.551.717 1.163 1.137 2.182 2.128 3.166.889.889 1.726 1.723 2.542 2.679 1.08 1.265 2.191 2.465 3.14 3.844.755 1.093 1.357 2.296 2.201 3.322.736.898 1.507 1.902 2.108 2.892.22.36.389.717.612 1.029a8.171 8.171 0 0 0-3.16 1.694 2.075 2.075 0 0 0-.554.793c-.548.825-.85 1.879-.92 2.822-.124 1.647.806 3.029 2.108 3.978 1.258.914 2.65 1.456 4.195 1.035l.306-.086a3.245 3.245 0 0 0 1.793-.64c.905-.401 1.745-.936 2.331-1.679 1.315-1.669 1.169-4.889-.293-6.536a2.568 2.568 0 0 0-.433-.506c-.577-.503-1.293-.806-2.07-.946a5.859 5.859 0 0 0-1.72-.178c.713-1.72.799-3.809 1.586-5.501 1.064-2.296 2.175-4.59 3.169-6.921 1.01-2.37 2.156-4.526 3.373-6.784 1.137-2.112 2.245-4.351 2.946-6.654.376-1.233.618-2.503 1.003-3.736.395-1.268.987-2.462 1.475-3.698.5-1.258.956-2.545 1.258-3.87.29-1.274.261-2.596.567-3.867.481-1.984 1.14-4.035 1.236-6.09.035-.771.108-1.532.169-2.296l-.699-.121z" data-color="3" class="icon3"></path></g></g>
</svg>
</g></svg></svg>